<?xml version="1.0" encoding="UTF-8" standalone="no"?>
<svg width="70px" height="84px" viewBox="0 0 70 84" version="1.1" xmlns="http://www.w3.org/2000/svg" xmlns:xlink="http://www.w3.org/1999/xlink">
    <!-- Generator: Sketch 39.1 (31720) - http://www.bohemiancoding.com/sketch -->
    <title>closed_salon_for_card_view</title>
    <desc>Created with Sketch.</desc>
    <defs>
        <filter x="-50%" y="-50%" width="200%" height="200%" filterUnits="objectBoundingBox" id="filter-1">
            <feGaussianBlur stdDeviation="1.74632353" in="SourceGraphic"/>
        </filter>
        <path d="M23.3914752,59.9484575 C23.6509112,60.0074493 28.0064567,69.4736842 30,69.4736842 C31.9011608,69.4736842 36.1678032,60.0467634 36.4672189,59.9802239 C49.9272087,56.9889965 60,44.8560507 60,30.343538 C60,13.5852647 46.5685425,0 30,0 C13.4314575,0 0,13.5852647 0,30.343538 C0,44.8052206 10.0023549,56.903976 23.3914752,59.9484575 Z" id="path-2"/>
        <filter x="-50%" y="-50%" width="200%" height="200%" filterUnits="objectBoundingBox" id="filter-3">
            <feMorphology radius="1" operator="dilate" in="SourceAlpha" result="shadowSpreadOuter1"/>
            <feOffset dx="0" dy="0" in="shadowSpreadOuter1" result="shadowOffsetOuter1"/>
            <feGaussianBlur stdDeviation="2" in="shadowOffsetOuter1" result="shadowBlurOuter1"/>
            <feComposite in="shadowBlurOuter1" in2="SourceAlpha" operator="out" result="shadowBlurOuter1"/>
            <feColorMatrix values="0 0 0 0 0.325490196   0 0 0 0 0.325490196   0 0 0 0 0.325490196  0 0 0 0.448624321 0" type="matrix" in="shadowBlurOuter1"/>
        </filter>
    </defs>
    <g id="Icons" stroke="none" stroke-width="1" fill="none" fill-rule="evenodd">
        <g id="Desktop-HD" transform="translate(-426.000000, -299.000000)">
            <g id="closed_salon_for_card_view" transform="translate(431.000000, 304.000000)">
                <g id="closed_salon_state_icon">
                    <path d="M30.4921304,74.8360065 C34.5427169,74.8360065 37.8263661,73.1643305 37.8263661,71.1022138 C37.8263661,69.040097 34.5427169,67.3684211 30.4921304,67.3684211 C26.4415439,67.3684211 23.1578947,69.040097 23.1578947,71.1022138 C23.1578947,73.1643305 26.4415439,74.8360065 30.4921304,74.8360065 Z" id="Oval-172" fill-opacity="0.2" fill="#4A4A4A" filter="url(#filter-1)"/>
                    <g id="Oval-171">
                        <use fill="black" fill-opacity="1" filter="url(#filter-3)" xlink:href="#path-2"/>
                        <use stroke="#FFFFFF" stroke-width="2" fill="#5E0023" fill-rule="evenodd" xlink:href="#path-2"/>
                    </g>
                    <path d="M35.2502766,46.55133 C33.7574353,46.5204885 32.5255315,45.3283045 32.5370685,43.9256803 C32.5488905,42.4867642 33.8151207,41.3391143 35.3672141,41.3602513 C36.8677468,41.3807237 38.1111877,42.5682549 38.0949504,43.9655616 C38.078713,45.376162 36.7518063,46.5823044 35.2502766,46.55133 M30.695551,31.2640428 C30.1251065,31.2640428 29.6626262,30.8325275 29.6626262,30.3001126 C29.6626262,29.7676976 30.1251065,29.3360494 30.695551,29.3360494 C31.2658532,29.3360494 31.7283334,29.7676976 31.7283334,30.3001126 C31.7283334,30.8325275 31.2658532,31.2640428 30.695551,31.2640428 M28.8385083,43.9493432 C28.836087,45.3510368 27.5893701,46.5360422 26.1005169,46.5518617 C24.5868804,46.5679472 23.2767808,45.3610071 23.2797719,43.9530654 C23.2829054,42.5437944 24.5222158,41.3747415 26.0238879,41.3646383 C27.5734176,41.3542692 28.8410721,42.5182704 28.8385083,43.9493432 M35.5429766,39.8986029 C34.5232981,39.8418386 34.3055178,39.6686209 34.07207,38.7109388 C33.7047351,37.2036928 33.0380057,29.9342684 33.0380057,29.9342684 C33.0380057,29.9342684 31.5933068,11.0437088 31.1870877,10.5263158 L30.9912421,10.6298741 C30.8231711,11.826711 30.6551,13.0235478 30.487029,14.2203846 C30.3128333,13.052794 30.1387801,11.8853364 29.9647268,10.7177459 L29.7586261,10.6035525 C29.4011191,11.0496909 28.0528474,30.1336747 28.0528474,30.1336747 C28.0528474,30.1336747 27.716278,36.5265089 27.1881361,38.8821624 C27.0122312,39.6659622 26.7407537,39.841041 25.7853125,39.9023252 C23.8627506,40.0255583 22.265221,41.2896615 21.843619,43.0210402 C21.4740051,44.5387883 22.0047108,46.0343358 23.1974456,47.0023871 C24.0516169,48.4985993 23.6213265,49.4105509 21.6872275,50.6091159 C21.3704563,50.8054647 20.9085457,50.8950646 21.0959877,51.3672588 C21.2694712,51.8044904 21.7187052,51.6933546 22.0935891,51.6714199 C23.5999615,51.5834153 25.1032004,50.508881 25.5280783,48.9872777 C25.5834848,48.788669 25.5346302,48.2251467 25.5092772,47.9770853 C26.782629,48.1314258 28.0947227,47.7557442 29.0686802,46.8889914 C29.3850241,46.6074296 29.6525135,46.2826632 29.8658783,45.931708 C30.3316345,45.2263413 30.5308984,44.3906959 30.4247857,43.5414908 C30.3964415,43.2885106 30.3391834,43.038588 30.2517295,42.7955781 C30.1665545,42.5457885 30.0553143,42.2975941 29.9135933,42.0541854 C29.8373916,41.9235078 29.7519318,41.7944254 29.658923,41.6669383 C27.8391977,38.874319 30.4549815,34.8574779 30.4549815,34.8574779 C30.4549815,34.8574779 33.2160471,39.3396005 31.6012831,41.8142331 C29.8618901,44.4800299 31.8182087,47.881902 35.0960215,48.0100538 C37.4515801,48.1023124 39.5218451,46.3823663 39.6558747,44.2218652 C39.7973107,41.9415873 37.9831404,40.034731 35.5429766,39.8986029" id="Fill-1" fill="#FFFFFF" transform="translate(30.358121, 31.113213) scale(-1, -1) translate(-30.358121, -31.113213) "/>
                </g>
            </g>
        </g>
    </g>
</svg>